<?xml version="1.0" standalone="no"?>
<!DOCTYPE svg PUBLIC "-//W3C//DTD SVG 20010904//EN"
 "http://www.w3.org/TR/2001/REC-SVG-20010904/DTD/svg10.dtd">
<svg version="1.0" xmlns="http://www.w3.org/2000/svg"
 width="700.000000pt" height="700.000000pt" viewBox="0 0 700.000000 700.000000"
 preserveAspectRatio="xMidYMid meet">
<metadata>
Created by potrace 1.11, written by Peter Selinger 2001-2013
</metadata>
<g transform="translate(0.000000,700.000000) scale(0.100000,-0.100000)"
fill="#000000" stroke="none">
<path d="M545 6985 c-245 -54 -432 -222 -513 -460 l-27 -80 0 -2945 0 -2945
27 -80 c76 -219 240 -379 458 -447 l75 -23 2935 0 2935 0 75 23 c218 68 382
228 458 447 l27 80 0 2945 0 2945 -27 80 c-82 241 -270 408 -518 461 -94 20
-5813 19 -5905 -1z m1212 -331 c188 -27 361 -90 484 -174 l58 -40 143 80 c227
127 366 165 520 142 103 -15 175 -48 236 -109 53 -54 72 -102 72 -184 -1 -135
-109 -231 -242 -216 -63 8 -90 23 -177 102 -85 77 -121 95 -189 95 -56 0 -125
-38 -161 -89 l-23 -32 25 -62 c42 -104 52 -171 51 -332 -1 -119 -6 -166 -23
-230 -73 -277 -279 -478 -600 -585 -113 -38 -189 -54 -386 -80 -249 -32 -332
-58 -366 -114 -47 -77 0 -150 111 -175 25 -5 106 -15 180 -21 74 -6 180 -17
235 -25 55 -7 156 -21 225 -30 321 -41 426 -66 561 -136 206 -107 364 -309
414 -529 22 -101 22 -284 0 -376 -80 -322 -342 -513 -820 -595 -91 -16 -182
-22 -372 -26 -363 -8 -589 17 -804 88 -368 122 -530 331 -498 642 14 140 62
245 141 312 72 61 202 105 307 105 122 -1 281 -60 374 -140 50 -44 58 -60 30
-60 -29 0 -117 -45 -157 -80 -59 -52 -89 -121 -94 -215 -3 -65 0 -91 18 -137
64 -172 294 -268 640 -268 258 0 465 55 576 153 188 166 155 506 -62 633 -100
59 -128 64 -914 170 -102 13 -221 34 -265 45 -169 43 -289 128 -347 247 -30
60 -33 77 -36 172 -4 119 15 198 68 275 67 97 201 180 348 215 28 6 54 16 57
20 3 5 -24 23 -60 41 -144 72 -264 202 -346 374 -51 108 -65 160 -75 283 -21
253 99 519 303 670 151 111 314 173 543 206 64 9 202 5 297 -10z m3383 -269
l101 -65 -19 -28 c-18 -26 -1357 -2136 -2980 -4697 -404 -638 -739 -1164 -743
-1169 -11 -12 -211 115 -205 131 4 10 3467 5474 3693 5826 23 37 45 67 48 67
2 0 50 -29 105 -65z m-230 -3025 l0 -80 -70 0 c-200 0 -259 -58 -212 -208 25
-78 623 -1233 637 -1229 6 2 59 86 119 188 541 916 585 996 592 1094 9 107
-33 144 -175 154 l-86 6 -3 78 -3 77 496 0 495 0 0 -80 0 -80 -43 0 c-55 0
-139 -25 -186 -54 -62 -39 -166 -160 -254 -293 -93 -140 -637 -1065 -637
-1082 0 -8 79 -11 240 -11 l240 0 0 -125 0 -125 -325 0 -325 0 0 -125 0 -125
323 -2 322 -3 3 -127 3 -128 -327 0 -327 0 6 -122 c15 -287 77 -365 310 -390
l107 -11 0 -74 0 -73 -705 0 -705 0 0 74 0 74 77 7 c173 16 263 68 297 172 18
57 36 193 36 280 l0 63 -325 0 -325 0 0 130 0 130 325 0 325 0 0 125 0 125
-325 0 -325 0 0 125 0 125 230 0 c148 0 230 4 230 10 0 15 -675 1195 -718
1255 -89 125 -149 163 -276 173 l-81 7 -3 78 -3 77 676 0 675 0 0 -80z"/>
<path d="M1490 6404 c-116 -50 -202 -196 -231 -393 -17 -120 -7 -374 19 -473
39 -144 104 -244 190 -291 179 -97 350 9 416 258 29 109 41 300 28 443 -28
315 -136 473 -321 472 -37 -1 -82 -8 -101 -16z"/>
</g>
</svg>
